<svg xmlns="http://www.w3.org/2000/svg" width="800" height="800" viewBox="0 0 24 24" fill="none"><g stroke-width="0"/><g stroke-linecap="round" stroke-linejoin="round"/><g stroke="#fff" stroke-width="1.5" fill="#ffffff000"><path d="M19.898 16h-12c-.93 0-1.395 0-1.777.102A3 3 0 0 0 4 18.224"/><path d="M8 7h8m-8 3.5h5m0 5.5v3.53c0 .276 0 .414-.095.47s-.224-.006-.484-.13l-1.242-.59c-.088-.04-.132-.062-.179-.062s-.091.021-.179.063l-1.242.59c-.26.123-.39.185-.484.129C9 19.944 9 19.806 9 19.53v-3.08" stroke-linecap="round"/><path d="M10 22c-2.828 0-4.243 0-5.121-.879C4 20.243 4 18.828 4 16V8c0-2.828 0-4.243.879-5.121C5.757 2 7.172 2 10 2h4c2.828 0 4.243 0 5.121.879C20 3.757 20 5.172 20 8m-6 14c2.828 0 4.243 0 5.121-.879C20 20.243 20 18.828 20 16v-4" stroke-linecap="round"/></g></svg>